<svg xmlns="http://www.w3.org/2000/svg" fill="#030303" viewBox="0 0 264 79">
    <path d="M5 2.5C5 3.88071 3.88071 5 2.5 5S0 3.88071 0 2.5 1.11929 0 2.5 0 5 1.11929 5 2.5zM79 2.5C79 3.88071 77.8807 5 76.5 5S74 3.88071 74 2.5 75.1193 0 76.5 0 79 1.11929 79 2.5zM153 2.5c0 1.38071-1.119 2.5-2.5 2.5S148 3.88071 148 2.5s1.119-2.5 2.5-2.5 2.5 1.11929 2.5 2.5zM227 2.5c0 1.38071-1.119 2.5-2.5 2.5S222 3.88071 222 2.5s1.119-2.5 2.5-2.5 2.5 1.11929 2.5 2.5zM42 2.5C42 3.88071 40.8807 5 39.5 5S37 3.88071 37 2.5 38.1193 0 39.5 0 42 1.11929 42 2.5zM116 2.5c0 1.38071-1.119 2.5-2.5 2.5S111 3.88071 111 2.5s1.119-2.5 2.5-2.5 2.5 1.11929 2.5 2.5zM190 2.5c0 1.38071-1.119 2.5-2.5 2.5S185 3.88071 185 2.5s1.119-2.5 2.5-2.5 2.5 1.11929 2.5 2.5zM264 2.5c0 1.38071-1.119 2.5-2.5 2.5S259 3.88071 259 2.5s1.119-2.5 2.5-2.5 2.5 1.11929 2.5 2.5zM5 39.5C5 40.8807 3.88071 42 2.5 42S0 40.8807 0 39.5 1.11929 37 2.5 37 5 38.1193 5 39.5zM5 76.5C5 77.8807 3.88071 79 2.5 79S0 77.8807 0 76.5 1.11929 74 2.5 74 5 75.1193 5 76.5zM79 39.5c0 1.3807-1.1193 2.5-2.5 2.5S74 40.8807 74 39.5s1.1193-2.5 2.5-2.5 2.5 1.1193 2.5 2.5zM79 76.5c0 1.3807-1.1193 2.5-2.5 2.5S74 77.8807 74 76.5s1.1193-2.5 2.5-2.5 2.5 1.1193 2.5 2.5zM153 39.5c0 1.3807-1.119 2.5-2.5 2.5s-2.5-1.1193-2.5-2.5 1.119-2.5 2.5-2.5 2.5 1.1193 2.5 2.5zM153 76.5c0 1.3807-1.119 2.5-2.5 2.5s-2.5-1.1193-2.5-2.5 1.119-2.5 2.5-2.5 2.5 1.1193 2.5 2.5zM227 39.5c0 1.3807-1.119 2.5-2.5 2.5s-2.5-1.1193-2.5-2.5 1.119-2.5 2.5-2.5 2.5 1.1193 2.5 2.5zM227 76.5c0 1.3807-1.119 2.5-2.5 2.5s-2.5-1.1193-2.5-2.5 1.119-2.5 2.5-2.5 2.5 1.1193 2.5 2.5zM42 39.5c0 1.3807-1.1193 2.5-2.5 2.5S37 40.8807 37 39.5s1.1193-2.5 2.5-2.5 2.5 1.1193 2.5 2.5zM42 76.5c0 1.3807-1.1193 2.5-2.5 2.5S37 77.8807 37 76.5s1.1193-2.5 2.5-2.5 2.5 1.1193 2.5 2.5zM116 39.5c0 1.3807-1.119 2.5-2.5 2.5s-2.5-1.1193-2.5-2.5 1.119-2.5 2.5-2.5 2.5 1.1193 2.5 2.5zM116 76.5c0 1.3807-1.119 2.5-2.5 2.5s-2.5-1.1193-2.5-2.5 1.119-2.5 2.5-2.5 2.5 1.1193 2.5 2.5zM190 39.5c0 1.3807-1.119 2.5-2.5 2.5s-2.5-1.1193-2.5-2.5 1.119-2.5 2.5-2.5 2.5 1.1193 2.5 2.5zM190 76.5c0 1.3807-1.119 2.5-2.5 2.5s-2.5-1.1193-2.5-2.5 1.119-2.5 2.5-2.5 2.5 1.1193 2.5 2.5zM264 39.5c0 1.3807-1.119 2.5-2.5 2.5s-2.5-1.1193-2.5-2.5 1.119-2.5 2.5-2.5 2.5 1.1193 2.5 2.5zM264 76.5c0 1.3807-1.119 2.5-2.5 2.5s-2.5-1.1193-2.5-2.5 1.119-2.5 2.5-2.5 2.5 1.1193 2.5 2.5z"/>
</svg>
