<svg xmlns="http://www.w3.org/2000/svg" fill="none" viewBox="0 0 279 26">
  <path fill="#030303" d="M.240234 1.19202H10.5442c1.344 0 2.5174.192 3.52.576 1.024.384 1.8667.93867 2.528 1.664.64.68267 1.1307 1.46133 1.472 2.336.3627.85333.544 1.81333.544 2.88 0 1.13067-.1813 2.15468-.544 3.07198-.3413.896-.8533 1.664-1.536 2.304-.6613.64-1.4826 1.1414-2.464 1.504-.96.3414-2.0693.512-3.328.512H4.72023V25H.240234V1.19202zM4.72023 12.488h5.31197c1.3654 0 2.3894-.3413 3.072-1.024.704-.6826 1.056-1.59998 1.056-2.75198 0-1.216-.352-2.13334-1.056-2.752-.704-.64-1.7066-.96-3.008-.96H4.72023V12.488zM21.6152 1.19202h17.408v3.776h-12.992V10.856h11.488v3.552h-11.488v6.72h13.28V25h-17.696V1.19202zM42.9902 1.19202h11.232c1.1094 0 2.1334.16 3.072.48.9387.29866 1.7387.736 2.4 1.312.6827.576 1.216 1.28 1.6 2.112.384.81066.576 1.73866.576 2.784 0 1.42933-.3413 2.64538-1.024 3.64798-.6826 1.0027-1.8026 1.7494-3.36 2.24v.096c1.2587.384 2.1547.9707 2.688 1.76.5547.7894.896 1.92 1.024 3.392.192 1.7494.3307 3.104.416 4.064.1067.96.32 1.5254.64 1.696V25h-4.48c-.2986-.192-.4906-.7466-.576-1.664-.064-.9173-.16-2.176-.288-3.776-.128-1.408-.544-2.432-1.248-3.072-.6826-.64-1.7386-.96-3.168-.96h-5.088V25h-4.416V1.19202zm4.416 10.94398h5.76c1.408 0 2.464-.32 3.168-.96.7254-.6613 1.088-1.54665 1.088-2.65598 0-1.19467-.3306-2.112-.992-2.752-.64-.64-1.6746-.96-3.104-.96h-5.92V12.136zM74.7025 25.544c-1.6427 0-3.104-.192-4.384-.576-1.2587-.4053-2.3253-.96-3.2-1.664-.8747-.7253-1.5573-1.5893-2.048-2.592-.4693-1.0026-.7253-2.112-.768-3.328h4.448c.32 3.072 2.3147 4.608 5.984 4.608.64 0 1.248-.064 1.824-.192.576-.1493 1.0773-.3626 1.504-.64.448-.2986.7893-.6613 1.024-1.088.256-.448.384-.9706.384-1.568 0-.64-.1493-1.1626-.448-1.568-.2773-.4266-.6827-.7786-1.216-1.056-.5333-.2986-1.184-.544-1.952-.736-.7467-.2133-1.5893-.4266-2.528-.64-1.1093-.256-2.1653-.5333-3.168-.832-.9813-.2986-1.8453-.704-2.592-1.216-.7253-.512-1.312-1.152-1.76-1.92-.4267-.78931-.64-1.78131-.64-2.97598 0-1.13067.2133-2.112.64-2.944.448-.85334 1.0666-1.55734 1.856-2.112.7893-.576 1.7173-1.00267 2.784-1.28 1.0667-.298668 2.24-.448002 3.52-.448002 2.7947 0 4.96.629332 6.496 1.888002 1.5573 1.23733 2.4533 2.95466 2.688 5.152h-4.32c-.1707-1.17333-.6827-2.06933-1.536-2.688-.8533-.64-1.984-.96-3.392-.96-1.344 0-2.4213.26666-3.232.8-.7893.512-1.184 1.248-1.184 2.208 0 .55466.1387 1.01333.416 1.376.2773.36267.672.672 1.184.928.5333.256 1.1627.48 1.888.67198.7467.192 1.5787.384 2.496.576 1.1093.2347 2.1653.512 3.168.832 1.024.32 1.9307.7574 2.72 1.312.7893.5334 1.4187 1.2267 1.888 2.08.4693.8534.704 1.92.704 3.2 0 1.1947-.2347 2.2507-.704 3.168-.4693.9174-1.12 1.6854-1.952 2.304-.8107.6187-1.7813 1.088-2.912 1.408-1.1307.3414-2.3573.512-3.68.512zM98.211 25.544c-1.792 0-3.4133-.3093-4.864-.928-1.4507-.6186-2.688-1.4826-3.712-2.592-1.0027-1.1093-1.7813-2.4213-2.336-3.936-.5333-1.5146-.8-3.1573-.8-4.928 0-1.792.2667-3.44532.8-4.95998.5547-1.51467 1.3333-2.816 2.336-3.904 1.024-1.10934 2.2613-1.97334 3.712-2.592 1.4507-.64 3.072-.960001 4.864-.960001 1.792 0 3.413.320001 4.864.960001 1.451.61866 2.677 1.48266 3.68 2.592 1.024 1.088 1.803 2.38933 2.336 3.904.555 1.51466.832 3.16798.832 4.95998 0 1.7707-.277 3.4134-.832 4.928-.533 1.5147-1.312 2.8267-2.336 3.936-1.003 1.1094-2.229 1.9734-3.68 2.592-1.451.6187-3.072.928-4.864.928zm.032-3.744c1.1733 0 2.208-.2133 3.104-.64.896-.448 1.643-1.056 2.24-1.824.597-.768 1.045-1.6746 1.344-2.72.299-1.0666.448-2.2186.448-3.456 0-1.2373-.149-2.3893-.448-3.45598-.299-1.06667-.747-1.99467-1.344-2.784-.597-.78934-1.344-1.408-2.24-1.856-.896-.448-1.9307-.672-3.104-.672-1.1947 0-2.24.224-3.136.672-.896.448-1.6533 1.06666-2.272 1.856-.5973.78933-1.056 1.71733-1.376 2.784-.2987 1.06668-.448 2.21868-.448 3.45598 0 1.2374.1493 2.3894.448 3.456.32 1.0454.7787 1.952 1.376 2.72.6187.768 1.376 1.376 2.272 1.824.896.4267 1.9413.64 3.136.64zM113.428 1.19202h4.544l7.904 12.47998c.32.5334.65 1.12.992 1.76.341.64.661 1.2374.96 1.792.341.6614.682 1.3227 1.024 1.984h.096c-.043-.7253-.086-1.44-.128-2.144-.043-.6186-.075-1.28-.096-1.984-.022-.704-.032-1.3546-.032-1.952V1.19202h4.192V25h-4.544l-7.872-12.416c-.342-.5333-.683-1.12-1.024-1.76-.342-.6613-.662-1.26932-.96-1.82398-.342-.66133-.683-1.32267-1.024-1.984h-.064c.021.72533.053 1.44.096 2.144.042.61867.074 1.27998.096 1.98398.021.704.032 1.3547.032 1.952V25h-4.192V1.19202zM144.182 1.19202h4.736L157.59 25h-4.736l-1.888-5.664h-9.024L140.022 25h-4.48l8.64-23.80798zM143.03 16.072h6.848l-1.824-5.504c-.235-.70398-.448-1.38665-.64-2.04798-.171-.68267-.32-1.30134-.448-1.856-.149-.64-.288-1.248-.416-1.824h-.064c-.171.66133-.341 1.33333-.512 2.016-.149.576-.32 1.20533-.512 1.888-.171.66133-.352 1.26938-.544 1.82398l-1.888 5.504zM160.303 1.19202h4.416V21.128h11.584V25h-16V1.19202zM189.418 1.09802c-4.318 0-7.956 2.414-7.956 6.46 0 3.60398 3.706 5.20198 7.344 6.69798 3.468 1.462 6.868 2.822 6.868 6.154 0 2.686-1.632 4.59-5.372 4.59-5.644 0-7.922-3.4-7.922-9.724 0-.476-.374-.476-.374 0 0 1.666.034 7.14.034 8.704 0 .204.034.272.34.34 2.414.646 4.25 1.02 7.922 1.02 4.08 0 7.412-2.618 7.412-6.528 0-3.672-3.57-5.236-7.106-6.698-3.502-1.496-7.004-2.88998-7.004-6.15398 0-2.584 1.666-4.522 5.814-4.522 6.358 0 7.31 3.978 7.242 9.21398 0 .442.34.442.34 0 0-5.37198.272-7.61598.204-8.29598-.034-.272-.136-.306-.374-.374-1.938-.442-4.012-.884-7.412-.884zM202.527 16.194c0 8.364-.17 8.5-1.836 8.5h-.714c-.272 0-.272.306 0 .306.952 0 3.4-.102 3.876-.102.51 0 2.89.102 3.842.102.272 0 .272-.306 0-.306h-.714c-1.666 0-1.836-.136-1.836-8.5v-5.95c0-8.36398.17-8.49998 1.836-8.49998h.714c.272 0 .272-.306 0-.306-.952 0-3.332.102-3.842.102-.476 0-2.924-.102-3.876-.102-.272 0-.272.306 0 .306h.714c1.666 0 1.836.136 1.836 8.49998v5.95zM221.133 1.40402h2.72c3.672.034 4.964 2.55 5.644 6.97l.306 1.93798c.068.204.374.238.306 0l-.238-1.93798c-.51-3.672-.204-6.936-.408-7.038-.204-.102-1.802-.238-4.148-.238h-.034c-3.434 0-3.978.068-5.474.068s-4.658-.068-5.508-.068c-2.346 0-3.944.136-4.148.238-.204.102.102 3.366-.374 7.038l-.272 1.93798c-.068.238.272.204.34 0l.272-1.93798c.68-4.42 1.972-6.936 5.61-6.936.782 0 1.836 0 2.788-.034V16.194c0 8.364-.17 8.5-1.836 8.5h-.612c-.272 0-.272.306 0 .306.952 0 3.264-.102 3.774-.102.476 0 2.788.102 3.74.102.272 0 .272-.306 0-.306h-.612c-1.666 0-1.836-.136-1.836-8.5V1.40402zM233.312 23.164c0 1.122.85 1.972 1.972 1.972 1.054 0 1.972-.85 1.972-1.972 0-1.054-.918-1.972-1.972-1.972-1.122 0-1.972.918-1.972 1.972zM245.381 10.244c0-8.36398-.272-8.39798 1.292-8.39798h4.318c3.876.034 6.528 2.176 7.174 5.984l.17 1.224c.068.204.408.238.34 0l-.136-1.224c-.51-3.672-.816-6.154-.986-6.256-.204-.102-.986-.136-1.598-.136-1.224 0-11.492.102-11.968.102-.51 0-2.822-.102-3.774-.102-.272 0-.272.306 0 .306h.612c1.666 0 1.972.136 1.972 8.49998 0 3.128.034 7.65-.136 9.996-.272 4.284-.578 4.522-2.55 4.522-.34 0-.34.238 0 .238l4.794-.102s6.222.102 8.602.102c2.346 0 4.386 0 4.522-.136.238-.204.442-1.496 1.054-7.038l.204-1.836c.034-.238-.34-.238-.374-.034l-.204 1.802c-.442 3.468-3.23 6.868-7.174 6.868-1.054 0-5.44-.102-6.426-.102.136-.578.272-2.38.272-4.998v-6.528h2.822c4.25 0 5.168 1.598 5.168 3.944v.51c0 .272.34.272.34 0 0-.51-.17-4.182-.17-4.658 0-.51.17-3.84198.17-4.82798 0-.272-.34-.272-.34 0v.714c0 2.34598-.918 3.90998-5.168 3.90998h-2.822v-2.346zM270.135 1.09802c-4.318 0-7.956 2.414-7.956 6.46 0 3.60398 3.706 5.20198 7.344 6.69798 3.468 1.462 6.868 2.822 6.868 6.154 0 2.686-1.632 4.59-5.372 4.59-5.644 0-7.922-3.4-7.922-9.724 0-.476-.374-.476-.374 0 0 1.666.034 7.14.034 8.704 0 .204.034.272.34.34 2.414.646 4.25 1.02 7.922 1.02 4.08 0 7.412-2.618 7.412-6.528 0-3.672-3.57-5.236-7.106-6.698-3.502-1.496-7.004-2.88998-7.004-6.15398 0-2.584 1.666-4.522 5.814-4.522 6.358 0 7.31 3.978 7.242 9.21398 0 .442.34.442.34 0 0-5.37198.272-7.61598.204-8.29598-.034-.272-.136-.306-.374-.374-1.938-.442-4.012-.884-7.412-.884z"/>
</svg>
