<?xml version="1.0" standalone="no"?>
<!DOCTYPE svg PUBLIC "-//W3C//DTD SVG 20010904//EN"
 "http://www.w3.org/TR/2001/REC-SVG-20010904/DTD/svg10.dtd">
<svg version="1.0" xmlns="http://www.w3.org/2000/svg"
 width="700.000000pt" height="700.000000pt" viewBox="0 0 700.000000 700.000000"
 preserveAspectRatio="xMidYMid meet">
<metadata>
Created by potrace 1.11, written by Peter Selinger 2001-2013
</metadata>
<g transform="translate(0.000000,700.000000) scale(0.100000,-0.100000)"
fill="#000000" stroke="none">
<path d="M335 6798 c-81 -28 -134 -97 -140 -182 -12 -160 147 -272 292 -207
74 34 117 98 122 182 8 142 -140 253 -274 207z"/>
<path d="M3425 6791 c-43 -19 -100 -78 -116 -118 -5 -13 -9 -47 -9 -74 0 -127
97 -217 224 -206 200 18 263 282 90 383 -58 34 -134 40 -189 15z"/>
<path d="M6545 6798 c-85 -30 -145 -118 -140 -207 8 -150 158 -243 290 -182
53 24 83 55 106 105 74 163 -88 343 -256 284z"/>
<path d="M370 3700 c-100 -18 -170 -94 -176 -193 -7 -124 81 -219 204 -220
173 -3 274 196 170 332 -44 58 -130 93 -198 81z"/>
<path d="M3485 3702 c-144 -25 -223 -161 -170 -289 42 -101 144 -149 251 -118
116 33 179 163 134 280 -29 76 -138 141 -215 127z"/>
<path d="M6575 3700 c-166 -36 -228 -236 -110 -355 78 -77 199 -81 284 -9 103
88 92 255 -22 331 -39 27 -110 42 -152 33z"/>
<path d="M353 590 c-115 -27 -184 -145 -153 -261 15 -55 91 -133 140 -142 116
-24 206 18 251 118 51 111 -16 254 -133 283 -52 13 -59 13 -105 2z"/>
<path d="M3436 585 c-142 -49 -183 -240 -75 -346 122 -119 332 -47 352 121 10
86 -37 176 -111 214 -42 21 -120 27 -166 11z"/>
<path d="M6560 591 c-55 -17 -89 -42 -119 -87 -17 -26 -32 -55 -32 -63 -8 -93
6 -148 49 -195 57 -60 161 -83 237 -52 124 52 166 223 79 324 -18 22 -48 46
-66 55 -41 20 -115 28 -148 18z"/>
</g>
</svg>
